<svg width="75" height="76" viewBox="0 0 75 76" fill="none" xmlns="http://www.w3.org/2000/svg">
<path d="M32.7282 0.308678C29.7194 0.711266 27.7912 1.15623 24.9307 2.10973C19.4004 3.97436 14.3575 7.17387 10.2468 11.4752C-1.19516 23.4469 -3.33524 42.9831 5.24625 57.3067C7.93724 61.7988 12.7683 66.757 17.218 69.5539C20.3539 71.5668 24.3586 73.2408 28.109 74.1519C29.8889 74.5757 30.1008 74.5968 30.5246 74.279C31.0755 73.8976 31.0967 73.9188 28.7023 73.4103C26.2868 72.9017 24.2103 72.1601 21.2227 70.7405C11.3698 66.0789 3.89016 56.5651 1.68652 45.9283C-0.919708 33.2997 2.6824 20.4593 11.2427 11.7083C14.1032 8.78423 16.3704 7.08912 19.9301 5.20331C27.77 1.07148 36.6693 -0.136284 45.8653 1.70715C59.7864 4.50407 70.9953 15.9037 73.7287 30.0155C73.9617 31.2656 74.1948 32.3039 74.2372 32.3462C74.2796 32.3886 74.4279 32.2615 74.5974 32.0708C75.2119 31.3292 73.8982 26.032 72.0547 21.8789C68.3043 13.3186 60.7611 6.07205 52.116 2.68183C46.1408 0.329872 39.1061 -0.517685 32.7282 0.308678Z" fill="#FAFDF9"/>
<path d="M53.9171 20.6287C52.5822 21.2644 51.6711 22.2179 50.8659 23.8494C49.9548 25.6928 49.3403 27.9389 48.1113 34.1048C46.9036 40.0801 45.8017 44.6993 45.5263 44.9959C45.2085 45.3349 43.1531 44.106 41.903 42.8558C39.6782 40.6098 37.9407 36.7746 37.1991 32.5157C36.7753 30.0577 36.7753 25.82 37.1991 23.3197C37.4321 22.006 37.4745 21.2856 37.3262 21.1372C37.0719 20.883 35.9065 21.0949 35.6311 21.4551C34.8471 22.4298 34.4869 29.5704 35.0378 32.7487C35.7158 36.7111 37.305 40.5462 39.2968 43.0465C40.5045 44.5509 42.4327 45.8646 43.9583 46.2037C45.2932 46.5003 45.272 46.3096 44.2338 48.937C42.4327 53.5138 39.4875 56.7133 36.0125 57.8152C35.5887 57.9423 34.275 58.1118 33.0672 58.2178C31.3086 58.3449 30.8212 58.4296 30.6305 58.7475C30.2279 59.3831 30.8424 59.5738 32.9613 59.4467C38.534 59.1289 42.6234 56.2472 45.4415 50.6321C47.2426 47.0724 48.1961 43.7881 49.976 34.9524C50.6752 31.5198 51.4804 27.8753 51.777 26.8794C52.8153 23.2773 53.9595 21.3915 55.0825 21.3915C55.7817 21.3915 56.6928 20.7135 56.4809 20.3744C56.2267 19.9718 55.0613 20.0778 53.9171 20.6287Z" fill="#FAFDF9"/>
<path d="M31.5204 20.6923C31.2662 20.9889 31.1602 21.8153 31.0543 24.252C30.7153 32.3885 28.5964 39.5716 25.2909 43.7034C24.3374 44.9112 24.295 44.9323 23.8924 44.5509C21.9219 42.7711 18.8071 32.6852 17.4934 23.8282C17.0484 20.7347 17.0273 20.6499 16.4975 20.5863C16.2009 20.544 15.7347 20.7135 15.4593 20.9254L14.9507 21.3491L15.4381 24.591C16.8154 34.0413 19.6971 42.7075 22.3668 45.4833C23.3415 46.5215 23.8077 46.6063 25.1214 45.9494C28.0243 44.5509 31.4992 36.8594 32.7494 29.0407C32.9613 27.727 33.1308 25.481 33.1308 23.6163L33.152 20.438L32.4951 20.3744C32.0925 20.3321 31.7323 20.438 31.5204 20.6923Z" fill="#FAFDF9"/>
<path d="M73.2413 36.8807C73.0294 37.0078 72.6692 37.5376 72.4362 38.0673C72.2031 38.6182 71.9276 38.9784 71.7581 38.9148C71.525 38.8301 71.4403 37.9401 71.631 37.3045C71.8005 36.7324 71.0589 36.8171 70.8046 37.3892C70.2325 38.6606 70.847 39.9107 71.9912 39.7836C72.4362 39.7412 72.6692 39.5081 73.0506 38.7029C73.6227 37.5164 74.1524 37.368 74.1524 38.4063C74.1524 38.7877 74.0465 39.2115 73.9194 39.3386C73.6439 39.6141 73.8346 40.0378 74.2584 40.0378C74.5762 40.0378 75 38.9572 75 38.1097C75 37.474 74.3643 36.6476 73.8982 36.6476C73.7499 36.6476 73.4532 36.7536 73.2413 36.8807Z" fill="#FAFDF9"/>
<path d="M69.8299 43.767C69.6392 44.551 69.4909 45.2078 69.5333 45.229C69.7028 45.3774 73.6015 46.1825 73.6863 46.0978C73.8558 45.9071 74.3855 43.3856 74.2796 43.2797C73.9829 42.983 73.538 43.4915 73.4108 44.2543C73.2837 44.9748 73.1778 45.1231 72.7964 45.1231C72.1183 45.1231 72.0548 44.9748 72.2878 44.1272C72.415 43.6187 72.415 43.3008 72.2666 43.1525C71.97 42.8559 71.8005 43.0466 71.631 43.8941C71.5038 44.4662 71.3767 44.5934 70.9741 44.5934C70.6775 44.5934 70.4656 44.4874 70.4868 44.3391C70.8046 42.7287 70.8046 42.3685 70.4868 42.3685C70.2749 42.3685 70.063 42.8135 69.8299 43.767Z" fill="#FAFDF9"/>
<path d="M55.0825 43.8093C54.2349 44.6781 54.2137 45.568 55.0613 46.4155C56.2902 47.6233 58.1548 46.8605 58.1548 45.1442C58.1548 44.0848 57.6039 43.4703 56.5021 43.2796C55.8453 43.1737 55.6546 43.2584 55.0825 43.8093Z" fill="#FAFDF9"/>
<path d="M68.5586 48.2379C68.262 48.5345 68.4739 48.8735 69.1519 49.2125L69.8935 49.5516L69.5545 50.4203C69.1731 51.3738 69.0883 51.395 68.2196 50.95C67.6475 50.6534 67.5839 50.6534 67.3932 51.0136C67.2025 51.3738 67.3932 51.5009 69.1731 52.2637C70.2749 52.7511 71.2072 53.0689 71.2708 53.0054C71.5674 52.7087 71.3344 52.3061 70.7199 51.9883C70.3385 51.7976 69.9995 51.6069 69.9571 51.5857C69.9147 51.5645 70.063 51.1407 70.2537 50.6746L70.5927 49.8058L71.3344 50.1025C72.2667 50.5051 72.3726 50.5051 72.5421 50.1025C72.6269 49.8482 72.3938 49.6575 71.6522 49.3397C69.5757 48.4286 68.6857 48.1107 68.5586 48.2379Z" fill="#FAFDF9"/>
<path d="M64.9565 55.2301C64.4267 55.9929 64.0453 56.7133 64.1089 56.8193C64.3208 57.1371 64.7234 56.9888 65.0412 56.459L65.3802 55.9293L66.8211 56.904C68.1136 57.7728 68.3043 57.8363 68.601 57.5609C68.8764 57.2642 68.7493 57.1371 67.3932 56.2472L65.8464 55.2725L66.2066 54.7427C66.5244 54.2342 66.4821 53.8104 66.1007 53.8104C65.9947 53.8104 65.465 54.4461 64.9565 55.2301Z" fill="#FAFDF9"/>
<path d="M61.7358 59.6587C59.4262 60.8029 60.973 64.3626 63.4309 63.5574C64.3844 63.2608 64.8294 62.6251 64.8294 61.6504C64.8294 60.6969 64.342 59.9977 63.4309 59.6163C62.5622 59.2561 62.541 59.2561 61.7358 59.6587ZM63.1978 60.4003C64.342 60.9088 64.342 62.5615 63.219 62.837C62.0112 63.1336 60.9094 61.375 61.757 60.5062C62.1596 60.1036 62.4986 60.0824 63.1978 60.4003Z" fill="#FAFDF9"/>
<path d="M55.7393 64.6804C55.5698 64.9135 55.7817 65.3161 56.6928 66.545C57.3285 67.4138 57.943 68.1342 58.0489 68.1766C58.2608 68.2613 60.3797 66.7145 60.3797 66.4815C60.3797 66.0577 59.8712 66.1213 59.2143 66.6086C58.8329 66.9052 58.4303 67.1595 58.3244 67.1595C58.2396 67.1595 57.7735 66.6298 57.3073 65.9729C56.2479 64.4897 56.0572 64.3202 55.7393 64.6804Z" fill="#FAFDF9"/>
<path d="M51.6499 67.0535C50.9083 67.4773 50.6328 67.9858 50.6328 69.0029C50.654 71.1853 53.5781 72.0117 54.5739 70.1047C54.9553 69.3631 54.9553 69.2783 54.5316 69.2783C54.3409 69.2783 54.0018 69.5114 53.7688 69.808C52.9424 70.8675 51.4804 70.253 51.438 68.8545C51.4168 68.007 51.9677 67.5196 52.7941 67.6468C53.1543 67.6891 53.4086 67.6044 53.4933 67.4137C53.6416 67.0111 53.5993 66.9687 52.8365 66.8416C52.4974 66.778 51.9677 66.8628 51.6499 67.0535Z" fill="#FAFDF9"/>
<path d="M43.2167 70.4439C43.1108 70.7405 42.9412 71.2278 42.8777 71.5033C42.7082 72.2025 42.4963 72.1602 41.8182 71.2914C41.5216 70.8888 41.0766 70.5498 40.8647 70.5498C40.2926 70.5498 40.3562 70.6769 41.3945 71.9483C41.903 72.5839 42.3903 73.4103 42.4539 73.8341C42.5598 74.385 42.7082 74.5757 43.026 74.5757C43.4074 74.5757 43.4498 74.4697 43.3226 73.6646C43.2379 73.0289 43.3226 72.4144 43.6193 71.5245C44.149 70.0201 44.149 69.9141 43.7464 69.9141C43.5557 69.9141 43.3226 70.1472 43.2167 70.4439Z" fill="#FAFDF9"/>
<path d="M34.3174 71.0159C34.3174 71.1642 34.6776 72.1601 35.1014 73.2407C36.1396 75.8681 36.3515 75.847 37.3898 73.0924C37.8347 71.927 38.1314 70.9099 38.0678 70.8252C37.7288 70.4862 37.2626 71.0795 36.8389 72.4355C36.5634 73.2619 36.2879 73.8764 36.2032 73.7916C36.1184 73.6857 35.8006 73.0076 35.5251 72.2448C35.2285 71.4185 34.8683 70.8464 34.6776 70.804C34.4657 70.7616 34.3174 70.8464 34.3174 71.0159Z" fill="#FAFDF9"/>
</svg>
